<svg viewBox="0 0 31 32" fill="none" xmlns="http://www.w3.org/2000/svg">
  <path
    d="M13.882 9.7887H6.88205C6.35162 9.7887 5.84291 9.99942 5.46784 10.3745C5.09276 10.7496 4.88205 11.2583 4.88205 11.7887V27.7887C4.88205 28.3191 5.09276 28.8278 5.46784 29.2029C5.84291 29.578 6.35162 29.7887 6.88205 29.7887H18.882C19.4125 29.7887 19.9212 29.578 20.2963 29.2029C20.6713 28.8278 20.882 28.3191 20.882 27.7887V16.7887L13.882 9.7887Z"
    fill="#19181A"
    stroke="white"
    stroke-width="2"
    stroke-linecap="round"
    stroke-linejoin="round"
  />
  <path
    d="M13.882 9.7887V16.7887H20.882"
    stroke="white"
    stroke-width="2"
    stroke-linecap="round"
    stroke-linejoin="round"
  />
  <path
    d="M19.882 2.7887H12.882C12.3516 2.7887 11.8429 2.99942 11.4678 3.37449C11.0928 3.74956 10.882 4.25827 10.882 4.7887V20.7887C10.882 21.3191 11.0928 21.8278 11.4678 22.2029C11.8429 22.578 12.3516 22.7887 12.882 22.7887H24.882C25.4125 22.7887 25.9212 22.578 26.2963 22.2029C26.6713 21.8278 26.882 21.3191 26.882 20.7887V9.7887L19.882 2.7887Z"
    fill="#19181A"
    stroke="white"
    stroke-width="2"
    stroke-linecap="round"
    stroke-linejoin="round"
  />
  <path
    d="M19.882 2.7887V9.7887H26.882"
    stroke="white"
    stroke-width="2"
    stroke-linecap="round"
    stroke-linejoin="round"
  />
</svg>
